<svg width="25" height="25" viewBox="0 0 25 25" fill="none" xmlns="http://www.w3.org/2000/svg">
<path d="M24.4332 10.3163H23.4666V10.2665H12.6666V15.0665H19.4484C18.459 17.8607 15.8004 19.8665 12.6666 19.8665C8.69043 19.8665 5.46663 16.6427 5.46663 12.6665C5.46663 8.6903 8.69043 5.4665 12.6666 5.4665C14.502 5.4665 16.1718 6.1589 17.4432 7.2899L20.8374 3.8957C18.6942 1.8983 15.8274 0.666504 12.6666 0.666504C6.03963 0.666504 0.666626 6.0395 0.666626 12.6665C0.666626 19.2935 6.03963 24.6665 12.6666 24.6665C19.2936 24.6665 24.6666 19.2935 24.6666 12.6665C24.6666 11.8619 24.5838 11.0765 24.4332 10.3163Z" fill="#FFC107"/>
<path d="M2.05029 7.0811L5.99289 9.9725C7.05969 7.3313 9.64329 5.4665 12.6667 5.4665C14.5021 5.4665 16.1719 6.1589 17.4433 7.2899L20.8375 3.8957C18.6943 1.8983 15.8275 0.666504 12.6667 0.666504C8.05749 0.666504 4.06029 3.2687 2.05029 7.0811Z" fill="#FF3D00"/>
<path d="M12.6666 24.6662C15.7662 24.6662 18.5826 23.48 20.712 21.551L16.998 18.4082C15.7528 19.3553 14.2311 19.8675 12.6666 19.8662C9.54544 19.8662 6.89524 17.876 5.89684 15.0986L1.98364 18.1136C3.96964 21.9998 8.00284 24.6662 12.6666 24.6662Z" fill="#4CAF50"/>
<path d="M24.4332 10.3169H23.4666V10.2671H12.6666V15.0671H19.4484C18.9752 16.3969 18.1226 17.559 16.9962 18.4097L16.998 18.4085L20.712 21.5513C20.4492 21.7901 24.6666 18.6671 24.6666 12.6671C24.6666 11.8625 24.5838 11.0771 24.4332 10.3169Z" fill="#1976D2"/>
</svg>
